solid ascii
  facet normal 0.000000e+000 0.000000e+000 9.425493e-001
    outer loop
      vertex   -1.393367e+002 1.480726e+002 2.000000e+000
      vertex   -1.055849e+002 1.600352e+002 2.000000e+000
      vertex   -1.393367e+002 1.551812e+002 2.000000e+000
    endloop
  endfacet
  facet normal 0.000000e+000 -0.000000e+000 7.372736e-001
    outer loop
      vertex   -1.393367e+002 1.551812e+002 2.000000e+000
      vertex   -1.055849e+002 1.600352e+002 2.000000e+000
      vertex   -1.452639e+002 1.600352e+002 2.000000e+000
    endloop
  endfacet
  facet normal 0.000000e+000 0.000000e+000 6.335940e-001
    outer loop
      vertex   -1.393367e+002 1.551812e+002 2.000000e+000
      vertex   -1.452639e+002 1.600352e+002 2.000000e+000
      vertex   -1.520367e+002 1.551812e+002 2.000000e+000
    endloop
  endfacet
  facet normal 0.000000e+000 -0.000000e+000 6.949092e-001
    outer loop
      vertex   -1.520367e+002 1.551812e+002 2.000000e+000
      vertex   -1.452639e+002 1.600352e+002 2.000000e+000
      vertex   -1.849429e+002 1.600352e+002 2.000000e+000
    endloop
  endfacet
  facet normal 0.000000e+000 0.000000e+000 9.892946e-001
    outer loop
      vertex   -1.520367e+002 1.551812e+002 2.000000e+000
      vertex   -1.849429e+002 1.600352e+002 2.000000e+000
      vertex   -1.520367e+002 1.480726e+002 2.000000e+000
    endloop
  endfacet
  facet normal 0.000000e+000 0.000000e+000 7.364119e-001
    outer loop
      vertex   -1.520367e+002 1.480726e+002 2.000000e+000
      vertex   -1.849429e+002 1.600352e+002 2.000000e+000
      vertex   -1.790341e+002 1.340495e+002 2.000000e+000
    endloop
  endfacet
  facet normal 0.000000e+000 0.000000e+000 9.946148e-001
    outer loop
      vertex   -1.520367e+002 1.480726e+002 2.000000e+000
      vertex   -1.790341e+002 1.340495e+002 2.000000e+000
      vertex   -1.453135e+002 1.310044e+002 2.000000e+000
    endloop
  endfacet
  facet normal 0.000000e+000 0.000000e+000 8.993637e-002
    outer loop
      vertex   -1.453135e+002 1.310044e+002 2.000000e+000
      vertex   -1.790341e+002 1.340495e+002 2.000000e+000
      vertex   -1.790341e+002 1.310044e+002 2.000000e+000
    endloop
  endfacet
  facet normal -0.000000e+000 0.000000e+000 9.304197e-001
    outer loop
      vertex   -1.520367e+002 1.480726e+002 2.000000e+000
      vertex   -1.453135e+002 1.310044e+002 2.000000e+000
      vertex   -1.393367e+002 1.480726e+002 2.000000e+000
    endloop
  endfacet
  facet normal 0.000000e+000 0.000000e+000 9.914096e-001
    outer loop
      vertex   -1.393367e+002 1.480726e+002 2.000000e+000
      vertex   -1.453135e+002 1.310044e+002 2.000000e+000
      vertex   -1.115930e+002 1.340495e+002 2.000000e+000
    endloop
  endfacet
  facet normal -0.000000e+000 0.000000e+000 7.233309e-001
    outer loop
      vertex   -1.393367e+002 1.480726e+002 2.000000e+000
      vertex   -1.115930e+002 1.340495e+002 2.000000e+000
      vertex   -1.055849e+002 1.600352e+002 2.000000e+000
    endloop
  endfacet
  facet normal 0.000000e+000 0.000000e+000 2.252653e-001
    outer loop
      vertex   -1.055849e+002 1.600352e+002 2.000000e+000
      vertex   -1.115930e+002 1.340495e+002 2.000000e+000
      vertex   -1.055849e+002 1.340495e+002 2.000000e+000
    endloop
  endfacet
  facet normal 0.000000e+000 0.000000e+000 2.217257e-001
    outer loop
      vertex   -1.849429e+002 1.600352e+002 2.000000e+000
      vertex   -1.849429e+002 1.340495e+002 2.000000e+000
      vertex   -1.790341e+002 1.340495e+002 2.000000e+000
    endloop
  endfacet
  facet normal 0.000000e+000 0.000000e+000 8.993637e-002
    outer loop
      vertex   -1.453135e+002 1.310044e+002 2.000000e+000
      vertex   -1.115930e+002 1.310044e+002 2.000000e+000
      vertex   -1.115930e+002 1.340495e+002 2.000000e+000
    endloop
  endfacet
  facet normal 3.246967e-016 -2.479482e-015 -9.898162e-001
    outer loop
      vertex   -1.393367e+002 1.551812e+002 9.969236e-015
      vertex   -1.055849e+002 1.600352e+002 8.881784e-015
      vertex   -1.393367e+002 1.480726e+002 2.777626e-014
    endloop
  endfacet
  facet normal -4.410688e-016 1.019786e-016 -7.233309e-001
    outer loop
      vertex   -1.393367e+002 1.480726e+002 2.777626e-014
      vertex   -1.055849e+002 1.600352e+002 8.881784e-015
      vertex   -1.115930e+002 1.340495e+002 8.881784e-015
    endloop
  endfacet
  facet normal -7.446901e-016 -1.375110e-016 -9.914096e-001
    outer loop
      vertex   -1.393367e+002 1.480726e+002 2.777626e-014
      vertex   -1.115930e+002 1.340495e+002 8.881784e-015
      vertex   -1.453135e+002 1.310044e+002 3.463309e-014
    endloop
  endfacet
  facet normal -2.130415e-017 -5.246528e-016 -8.993637e-002
    outer loop
      vertex   -1.453135e+002 1.310044e+002 3.463309e-014
      vertex   -1.115930e+002 1.340495e+002 8.881784e-015
      vertex   -1.115930e+002 1.310044e+002 2.664535e-014
    endloop
  endfacet
  facet normal -4.847649e-018 1.816555e-018 -1.423508e-001
    outer loop
      vertex   -1.055849e+002 1.600352e+002 8.881784e-015
      vertex   -1.393367e+002 1.551812e+002 9.969236e-015
      vertex   -1.452639e+002 1.600352e+002 1.023302e-014
    endloop
  endfacet
  facet normal -2.343362e-016 -2.336635e-016 -9.656746e-001
    outer loop
      vertex   -1.452639e+002 1.600352e+002 1.023302e-014
      vertex   -1.393367e+002 1.551812e+002 9.969236e-015
      vertex   -1.520367e+002 1.551812e+002 1.305109e-014
    endloop
  endfacet
  facet normal -2.409506e-016 -1.995001e-018 -5.825302e-001
    outer loop
      vertex   -1.452639e+002 1.600352e+002 1.023302e-014
      vertex   -1.520367e+002 1.551812e+002 1.305109e-014
      vertex   -1.849429e+002 1.600352e+002 2.664535e-014
    endloop
  endfacet
  facet normal -1.571956e-016 -5.031369e-016 -2.008536e-001
    outer loop
      vertex   -1.849429e+002 1.600352e+002 2.664535e-014
      vertex   -1.520367e+002 1.551812e+002 1.305109e-014
      vertex   -1.520367e+002 1.480726e+002 3.085811e-014
    endloop
  endfacet
  facet normal 1.173247e-016 2.667794e-017 -8.406746e-001
    outer loop
      vertex   -1.849429e+002 1.600352e+002 2.664535e-014
      vertex   -1.520367e+002 1.480726e+002 3.085811e-014
      vertex   -1.790341e+002 1.340495e+002 2.664535e-014
    endloop
  endfacet
  facet normal 1.212019e-016 -7.144585e-017 -5.388950e-001
    outer loop
      vertex   -1.790341e+002 1.340495e+002 2.664535e-014
      vertex   -1.520367e+002 1.480726e+002 3.085811e-014
      vertex   -1.453135e+002 1.310044e+002 3.463309e-014
    endloop
  endfacet
  facet normal -2.887325e-016 -5.809959e-015 -9.959475e-001
    outer loop
      vertex   -1.790341e+002 1.340495e+002 2.664535e-014
      vertex   -1.453135e+002 1.310044e+002 3.463309e-014
      vertex   -1.790341e+002 1.310044e+002 4.440892e-014
    endloop
  endfacet
  facet normal -2.257810e-016 -2.947174e-016 -9.304197e-001
    outer loop
      vertex   -1.520367e+002 1.480726e+002 3.085811e-014
      vertex   -1.393367e+002 1.480726e+002 2.777626e-014
      vertex   -1.453135e+002 1.310044e+002 3.463309e-014
    endloop
  endfacet
  facet normal 0.000000e+000 0.000000e+000 -1.000000e+000
    outer loop
      vertex   -1.849429e+002 1.340495e+002 2.664535e-014
      vertex   -1.849429e+002 1.600352e+002 2.664535e-014
      vertex   -1.790341e+002 1.340495e+002 2.664535e-014
    endloop
  endfacet
  facet normal 0.000000e+000 -0.000000e+000 -2.252653e-001
    outer loop
      vertex   -1.055849e+002 1.600352e+002 8.881784e-015
      vertex   -1.055849e+002 1.340495e+002 8.881784e-015
      vertex   -1.115930e+002 1.340495e+002 8.881784e-015
    endloop
  endfacet
  facet normal -1.000000e+000 0.000000e+000 0.000000e+000
    outer loop
      vertex   -1.849429e+002 1.340495e+002 2.664535e-014
      vertex   -1.849429e+002 1.340495e+002 2.000000e+000
      vertex   -1.849429e+002 1.600352e+002 2.664535e-014
    endloop
  endfacet
  facet normal -9.970512e-001 0.000000e+000 0.000000e+000
    outer loop
      vertex   -1.849429e+002 1.600352e+002 2.664535e-014
      vertex   -1.849429e+002 1.340495e+002 2.000000e+000
      vertex   -1.849429e+002 1.600352e+002 2.000000e+000
    endloop
  endfacet
  facet normal 1.000000e+000 0.000000e+000 -0.000000e+000
    outer loop
      vertex   -1.520367e+002 1.551812e+002 1.305109e-014
      vertex   -1.520367e+002 1.551812e+002 2.000000e+000
      vertex   -1.520367e+002 1.480726e+002 3.085811e-014
    endloop
  endfacet
  facet normal 9.626261e-001 0.000000e+000 0.000000e+000
    outer loop
      vertex   -1.520367e+002 1.480726e+002 3.085811e-014
      vertex   -1.520367e+002 1.551812e+002 2.000000e+000
      vertex   -1.520367e+002 1.480726e+002 2.000000e+000
    endloop
  endfacet
  facet normal -0.000000e+000 1.000000e+000 0.000000e+000
    outer loop
      vertex   -1.520367e+002 1.480726e+002 3.085811e-014
      vertex   -1.520367e+002 1.480726e+002 2.000000e+000
      vertex   -1.393367e+002 1.480726e+002 2.777626e-014
    endloop
  endfacet
  facet normal 0.000000e+000 9.878260e-001 -0.000000e+000
    outer loop
      vertex   -1.393367e+002 1.480726e+002 2.777626e-014
      vertex   -1.520367e+002 1.480726e+002 2.000000e+000
      vertex   -1.393367e+002 1.480726e+002 2.000000e+000
    endloop
  endfacet
  facet normal -1.000000e+000 0.000000e+000 0.000000e+000
    outer loop
      vertex   -1.393367e+002 1.480726e+002 2.777626e-014
      vertex   -1.393367e+002 1.480726e+002 2.000000e+000
      vertex   -1.393367e+002 1.551812e+002 9.969236e-015
    endloop
  endfacet
  facet normal -9.626261e-001 0.000000e+000 0.000000e+000
    outer loop
      vertex   -1.393367e+002 1.551812e+002 9.969236e-015
      vertex   -1.393367e+002 1.480726e+002 2.000000e+000
      vertex   -1.393367e+002 1.551812e+002 2.000000e+000
    endloop
  endfacet
  facet normal 0.000000e+000 -1.000000e+000 0.000000e+000
    outer loop
      vertex   -1.393367e+002 1.551812e+002 9.969236e-015
      vertex   -1.393367e+002 1.551812e+002 2.000000e+000
      vertex   -1.520367e+002 1.551812e+002 1.305109e-014
    endloop
  endfacet
  facet normal 0.000000e+000 -9.878260e-001 0.000000e+000
    outer loop
      vertex   -1.520367e+002 1.551812e+002 1.305109e-014
      vertex   -1.393367e+002 1.551812e+002 2.000000e+000
      vertex   -1.520367e+002 1.551812e+002 2.000000e+000
    endloop
  endfacet
  facet normal 1.000000e+000 -0.000000e+000 0.000000e+000
    outer loop
      vertex   -1.115930e+002 1.310044e+002 2.664535e-014
      vertex   -1.115930e+002 1.340495e+002 8.881784e-015
      vertex   -1.115930e+002 1.310044e+002 2.000000e+000
    endloop
  endfacet
  facet normal 5.489807e-001 -0.000000e+000 0.000000e+000
    outer loop
      vertex   -1.115930e+002 1.310044e+002 2.000000e+000
      vertex   -1.115930e+002 1.340495e+002 8.881784e-015
      vertex   -1.115930e+002 1.340495e+002 2.000000e+000
    endloop
  endfacet
  facet normal 0.000000e+000 -1.000000e+000 0.000000e+000
    outer loop
      vertex   -1.115930e+002 1.340495e+002 8.881784e-015
      vertex   -1.055849e+002 1.340495e+002 8.881784e-015
      vertex   -1.115930e+002 1.340495e+002 2.000000e+000
    endloop
  endfacet
  facet normal 0.000000e+000 -3.158435e-001 0.000000e+000
    outer loop
      vertex   -1.115930e+002 1.340495e+002 2.000000e+000
      vertex   -1.055849e+002 1.340495e+002 8.881784e-015
      vertex   -1.055849e+002 1.340495e+002 2.000000e+000
    endloop
  endfacet
  facet normal -0.000000e+000 -1.000000e+000 -0.000000e+000
    outer loop
      vertex   -1.115930e+002 1.310044e+002 2.000000e+000
      vertex   -1.453135e+002 1.310044e+002 2.000000e+000
      vertex   -1.115930e+002 1.310044e+002 2.664535e-014
    endloop
  endfacet
  facet normal 0.000000e+000 -5.920697e-002 0.000000e+000
    outer loop
      vertex   -1.115930e+002 1.310044e+002 2.664535e-014
      vertex   -1.453135e+002 1.310044e+002 2.000000e+000
      vertex   -1.453135e+002 1.310044e+002 3.463309e-014
    endloop
  endfacet
  facet normal 0.000000e+000 -9.982457e-001 0.000000e+000
    outer loop
      vertex   -1.453135e+002 1.310044e+002 3.463309e-014
      vertex   -1.453135e+002 1.310044e+002 2.000000e+000
      vertex   -1.790341e+002 1.310044e+002 2.000000e+000
    endloop
  endfacet
  facet normal 0.000000e+000 -5.920697e-002 0.000000e+000
    outer loop
      vertex   -1.453135e+002 1.310044e+002 3.463309e-014
      vertex   -1.790341e+002 1.310044e+002 2.000000e+000
      vertex   -1.790341e+002 1.310044e+002 4.440892e-014
    endloop
  endfacet
  facet normal 0.000000e+000 -1.000000e+000 0.000000e+000
    outer loop
      vertex   -1.849429e+002 1.340495e+002 2.664535e-014
      vertex   -1.790341e+002 1.340495e+002 2.664535e-014
      vertex   -1.849429e+002 1.340495e+002 2.000000e+000
    endloop
  endfacet
  facet normal 0.000000e+000 -3.206112e-001 0.000000e+000
    outer loop
      vertex   -1.849429e+002 1.340495e+002 2.000000e+000
      vertex   -1.790341e+002 1.340495e+002 2.664535e-014
      vertex   -1.790341e+002 1.340495e+002 2.000000e+000
    endloop
  endfacet
  facet normal -1.000000e+000 0.000000e+000 0.000000e+000
    outer loop
      vertex   -1.790341e+002 1.310044e+002 2.000000e+000
      vertex   -1.790341e+002 1.340495e+002 2.000000e+000
      vertex   -1.790341e+002 1.310044e+002 4.440892e-014
    endloop
  endfacet
  facet normal -5.489807e-001 0.000000e+000 0.000000e+000
    outer loop
      vertex   -1.790341e+002 1.310044e+002 4.440892e-014
      vertex   -1.790341e+002 1.340495e+002 2.000000e+000
      vertex   -1.790341e+002 1.340495e+002 2.664535e-014
    endloop
  endfacet
  facet normal 1.000000e+000 -0.000000e+000 0.000000e+000
    outer loop
      vertex   -1.055849e+002 1.340495e+002 2.000000e+000
      vertex   -1.055849e+002 1.340495e+002 8.881784e-015
      vertex   -1.055849e+002 1.600352e+002 2.000000e+000
    endloop
  endfacet
  facet normal 9.970512e-001 0.000000e+000 0.000000e+000
    outer loop
      vertex   -1.055849e+002 1.600352e+002 2.000000e+000
      vertex   -1.055849e+002 1.340495e+002 8.881784e-015
      vertex   -1.055849e+002 1.600352e+002 8.881784e-015
    endloop
  endfacet
  facet normal 0.000000e+000 1.000000e+000 -0.000000e+000
    outer loop
      vertex   -1.055849e+002 1.600352e+002 8.881784e-015
      vertex   -1.452639e+002 1.600352e+002 1.023302e-014
      vertex   -1.055849e+002 1.600352e+002 2.000000e+000
    endloop
  endfacet
  facet normal 0.000000e+000 5.034060e-002 0.000000e+000
    outer loop
      vertex   -1.055849e+002 1.600352e+002 2.000000e+000
      vertex   -1.452639e+002 1.600352e+002 1.023302e-014
      vertex   -1.452639e+002 1.600352e+002 2.000000e+000
    endloop
  endfacet
  facet normal 0.000000e+000 9.987321e-001 0.000000e+000
    outer loop
      vertex   -1.452639e+002 1.600352e+002 2.000000e+000
      vertex   -1.452639e+002 1.600352e+002 1.023302e-014
      vertex   -1.849429e+002 1.600352e+002 2.664535e-014
    endloop
  endfacet
  facet normal 0.000000e+000 5.034059e-002 0.000000e+000
    outer loop
      vertex   -1.452639e+002 1.600352e+002 2.000000e+000
      vertex   -1.849429e+002 1.600352e+002 2.664535e-014
      vertex   -1.849429e+002 1.600352e+002 2.000000e+000
    endloop
  endfacet
endsolid
